<mxfile host="app.diagrams.net" agent="Mozilla/5.0 (Windows NT 10.0; Win64; x64) AppleWebKit/537.36 (KHTML, like Gecko) Chrome/128.0.0.0 Safari/537.36" version="24.7.8">
  <diagram name="Page-1" id="I8B5Z14WjMtW6FUeoOw3">
    <mxGraphModel dx="1793" dy="965" grid="1" gridSize="10" guides="1" tooltips="1" connect="1" arrows="1" fold="1" page="1" pageScale="1" pageWidth="850" pageHeight="1100" math="0" shadow="0">
      <root>
        <mxCell id="0" />
        <mxCell id="1" parent="0" />
        <mxCell id="XoVqxzNiHWCVRk3dF-dY-1" value="Caso de Uso" style="shape=umlFrame;whiteSpace=wrap;html=1;pointerEvents=0;width=150;" parent="1" vertex="1">
          <mxGeometry x="40" y="60" width="400" height="530" as="geometry" />
        </mxCell>
        <mxCell id="XoVqxzNiHWCVRk3dF-dY-6" style="edgeStyle=orthogonalEdgeStyle;rounded=0;orthogonalLoop=1;jettySize=auto;html=1;entryX=0;entryY=0.5;entryDx=0;entryDy=0;" parent="1" source="XoVqxzNiHWCVRk3dF-dY-2" target="XoVqxzNiHWCVRk3dF-dY-3" edge="1">
          <mxGeometry relative="1" as="geometry" />
        </mxCell>
        <mxCell id="XoVqxzNiHWCVRk3dF-dY-7" style="edgeStyle=orthogonalEdgeStyle;rounded=0;orthogonalLoop=1;jettySize=auto;html=1;entryX=0;entryY=0.5;entryDx=0;entryDy=0;" parent="1" source="XoVqxzNiHWCVRk3dF-dY-2" target="XoVqxzNiHWCVRk3dF-dY-4" edge="1">
          <mxGeometry relative="1" as="geometry" />
        </mxCell>
        <mxCell id="XoVqxzNiHWCVRk3dF-dY-8" style="edgeStyle=orthogonalEdgeStyle;rounded=0;orthogonalLoop=1;jettySize=auto;html=1;entryX=0;entryY=0.5;entryDx=0;entryDy=0;" parent="1" source="XoVqxzNiHWCVRk3dF-dY-2" target="XoVqxzNiHWCVRk3dF-dY-5" edge="1">
          <mxGeometry relative="1" as="geometry" />
        </mxCell>
        <mxCell id="XoVqxzNiHWCVRk3dF-dY-2" value="Ator&lt;div&gt;&lt;br&gt;&lt;/div&gt;" style="shape=umlActor;verticalLabelPosition=bottom;verticalAlign=top;html=1;" parent="1" vertex="1">
          <mxGeometry x="100" y="200" width="30" height="60" as="geometry" />
        </mxCell>
        <mxCell id="XoVqxzNiHWCVRk3dF-dY-3" value="Venda" style="ellipse;whiteSpace=wrap;html=1;" parent="1" vertex="1">
          <mxGeometry x="300" y="90" width="120" height="80" as="geometry" />
        </mxCell>
        <mxCell id="XoVqxzNiHWCVRk3dF-dY-4" value="Alteração manual do Saldo" style="ellipse;whiteSpace=wrap;html=1;" parent="1" vertex="1">
          <mxGeometry x="300" y="190" width="120" height="80" as="geometry" />
        </mxCell>
        <mxCell id="XoVqxzNiHWCVRk3dF-dY-5" value="Relátório Consolidado Diário&amp;nbsp;" style="ellipse;whiteSpace=wrap;html=1;" parent="1" vertex="1">
          <mxGeometry x="300" y="450" width="120" height="80" as="geometry" />
        </mxCell>
        <mxCell id="XoVqxzNiHWCVRk3dF-dY-9" value="Arquitetura simplificada" style="shape=umlFrame;whiteSpace=wrap;html=1;pointerEvents=0;width=150;" parent="1" vertex="1">
          <mxGeometry x="460" y="60" width="440" height="530" as="geometry" />
        </mxCell>
        <mxCell id="XoVqxzNiHWCVRk3dF-dY-14" style="edgeStyle=orthogonalEdgeStyle;rounded=0;orthogonalLoop=1;jettySize=auto;html=1;entryX=0;entryY=0;entryDx=0;entryDy=15;startArrow=classic;startFill=1;entryPerimeter=0;" parent="1" source="XoVqxzNiHWCVRk3dF-dY-10" target="XoVqxzNiHWCVRk3dF-dY-24" edge="1">
          <mxGeometry relative="1" as="geometry">
            <mxPoint x="690" y="230" as="targetPoint" />
          </mxGeometry>
        </mxCell>
        <mxCell id="XoVqxzNiHWCVRk3dF-dY-10" value="SQL" style="shape=cylinder3;whiteSpace=wrap;html=1;boundedLbl=1;backgroundOutline=1;size=15;" parent="1" vertex="1">
          <mxGeometry x="490" y="130" width="60" height="80" as="geometry" />
        </mxCell>
        <mxCell id="XoVqxzNiHWCVRk3dF-dY-17" style="edgeStyle=orthogonalEdgeStyle;rounded=0;orthogonalLoop=1;jettySize=auto;html=1;entryX=1;entryY=0.5;entryDx=0;entryDy=0;startArrow=classic;startFill=1;exitX=0;exitY=0;exitDx=0;exitDy=35;exitPerimeter=0;" parent="1" source="XoVqxzNiHWCVRk3dF-dY-25" target="XoVqxzNiHWCVRk3dF-dY-24" edge="1">
          <mxGeometry relative="1" as="geometry">
            <mxPoint x="970" y="320" as="sourcePoint" />
            <mxPoint x="810" y="230" as="targetPoint" />
          </mxGeometry>
        </mxCell>
        <mxCell id="XoVqxzNiHWCVRk3dF-dY-18" value="Requisições Http&amp;nbsp;" style="edgeLabel;html=1;align=center;verticalAlign=middle;resizable=0;points=[];" parent="XoVqxzNiHWCVRk3dF-dY-17" vertex="1" connectable="0">
          <mxGeometry x="0.08" y="2" relative="1" as="geometry">
            <mxPoint x="52" y="-25" as="offset" />
          </mxGeometry>
        </mxCell>
        <mxCell id="XoVqxzNiHWCVRk3dF-dY-15" style="edgeStyle=orthogonalEdgeStyle;rounded=0;orthogonalLoop=1;jettySize=auto;html=1;entryX=0.5;entryY=0;entryDx=0;entryDy=0;exitX=0.5;exitY=1;exitDx=0;exitDy=0;" parent="1" source="XoVqxzNiHWCVRk3dF-dY-24" target="XoVqxzNiHWCVRk3dF-dY-22" edge="1">
          <mxGeometry relative="1" as="geometry">
            <mxPoint x="750" y="260" as="sourcePoint" />
            <mxPoint x="750" y="430" as="targetPoint" />
          </mxGeometry>
        </mxCell>
        <mxCell id="XoVqxzNiHWCVRk3dF-dY-16" style="edgeStyle=orthogonalEdgeStyle;rounded=0;orthogonalLoop=1;jettySize=auto;html=1;entryX=0.5;entryY=1;entryDx=0;entryDy=0;exitX=1;exitY=0.5;exitDx=0;exitDy=0;" parent="1" source="XoVqxzNiHWCVRk3dF-dY-22" target="XoVqxzNiHWCVRk3dF-dY-25" edge="1">
          <mxGeometry relative="1" as="geometry">
            <mxPoint x="810" y="460" as="sourcePoint" />
            <mxPoint x="1030" y="350" as="targetPoint" />
          </mxGeometry>
        </mxCell>
        <mxCell id="XoVqxzNiHWCVRk3dF-dY-19" value="Alteração dos&amp;nbsp;&lt;div&gt;Relatórios em Tela&amp;nbsp;&lt;/div&gt;" style="edgeLabel;html=1;align=center;verticalAlign=middle;resizable=0;points=[];" parent="XoVqxzNiHWCVRk3dF-dY-16" vertex="1" connectable="0">
          <mxGeometry x="-0.097" y="-2" relative="1" as="geometry">
            <mxPoint x="-19" y="18" as="offset" />
          </mxGeometry>
        </mxCell>
        <mxCell id="XoVqxzNiHWCVRk3dF-dY-21" value="Diagrama de Classes" style="shape=umlFrame;whiteSpace=wrap;html=1;pointerEvents=0;width=150;" parent="1" vertex="1">
          <mxGeometry x="40" y="630" width="900" height="620" as="geometry" />
        </mxCell>
        <mxCell id="XoVqxzNiHWCVRk3dF-dY-22" value="ScketIo" style="shape=module;align=left;spacingLeft=20;align=center;verticalAlign=top;whiteSpace=wrap;html=1;" parent="1" vertex="1">
          <mxGeometry x="580" y="420" width="100" height="50" as="geometry" />
        </mxCell>
        <mxCell id="XoVqxzNiHWCVRk3dF-dY-24" value="Backend" style="shape=module;align=left;spacingLeft=20;align=center;verticalAlign=top;whiteSpace=wrap;html=1;" parent="1" vertex="1">
          <mxGeometry x="590" y="205" width="100" height="50" as="geometry" />
        </mxCell>
        <mxCell id="XoVqxzNiHWCVRk3dF-dY-25" value="Frontend" style="shape=module;align=left;spacingLeft=20;align=center;verticalAlign=top;whiteSpace=wrap;html=1;" parent="1" vertex="1">
          <mxGeometry x="720" y="305" width="100" height="50" as="geometry" />
        </mxCell>
        <mxCell id="B5Lb7v3GaMCdAjL5lqkr-8" style="edgeStyle=orthogonalEdgeStyle;rounded=0;orthogonalLoop=1;jettySize=auto;html=1;entryX=0;entryY=0.5;entryDx=0;entryDy=0;dashed=1;" edge="1" parent="1" source="XoVqxzNiHWCVRk3dF-dY-26" target="B5Lb7v3GaMCdAjL5lqkr-6">
          <mxGeometry relative="1" as="geometry" />
        </mxCell>
        <mxCell id="B5Lb7v3GaMCdAjL5lqkr-11" value="Extends" style="edgeLabel;html=1;align=center;verticalAlign=middle;resizable=0;points=[];" vertex="1" connectable="0" parent="B5Lb7v3GaMCdAjL5lqkr-8">
          <mxGeometry x="-0.4821" y="-2" relative="1" as="geometry">
            <mxPoint x="9" y="8" as="offset" />
          </mxGeometry>
        </mxCell>
        <mxCell id="XoVqxzNiHWCVRk3dF-dY-26" value="CashFlow" style="swimlane;fontStyle=0;childLayout=stackLayout;horizontal=1;startSize=26;fillColor=none;horizontalStack=0;resizeParent=1;resizeParentMax=0;resizeLast=0;collapsible=1;marginBottom=0;whiteSpace=wrap;html=1;" parent="1" vertex="1">
          <mxGeometry x="60" y="890" width="140" height="170" as="geometry" />
        </mxCell>
        <mxCell id="XoVqxzNiHWCVRk3dF-dY-27" value="+ Id: Guid" style="text;strokeColor=none;fillColor=none;align=left;verticalAlign=top;spacingLeft=4;spacingRight=4;overflow=hidden;rotatable=0;points=[[0,0.5],[1,0.5]];portConstraint=eastwest;whiteSpace=wrap;html=1;" parent="XoVqxzNiHWCVRk3dF-dY-26" vertex="1">
          <mxGeometry y="26" width="140" height="26" as="geometry" />
        </mxCell>
        <mxCell id="B5Lb7v3GaMCdAjL5lqkr-1" value="&lt;span style=&quot;color: rgb(0, 0, 0); font-family: Helvetica; font-size: 12px; font-style: normal; font-variant-ligatures: normal; font-variant-caps: normal; font-weight: 400; letter-spacing: normal; orphans: 2; text-align: left; text-indent: 0px; text-transform: none; widows: 2; word-spacing: 0px; -webkit-text-stroke-width: 0px; white-space: normal; background-color: rgb(251, 251, 251); text-decoration-thickness: initial; text-decoration-style: initial; text-decoration-color: initial; display: inline !important; float: none;&quot;&gt;+ Value: Decimal(17,2)&lt;/span&gt;" style="text;whiteSpace=wrap;html=1;" vertex="1" parent="XoVqxzNiHWCVRk3dF-dY-26">
          <mxGeometry y="52" width="140" height="40" as="geometry" />
        </mxCell>
        <mxCell id="XoVqxzNiHWCVRk3dF-dY-28" value="+ Date: Datetime" style="text;strokeColor=none;fillColor=none;align=left;verticalAlign=top;spacingLeft=4;spacingRight=4;overflow=hidden;rotatable=0;points=[[0,0.5],[1,0.5]];portConstraint=eastwest;whiteSpace=wrap;html=1;" parent="XoVqxzNiHWCVRk3dF-dY-26" vertex="1">
          <mxGeometry y="92" width="140" height="26" as="geometry" />
        </mxCell>
        <mxCell id="XoVqxzNiHWCVRk3dF-dY-29" value="+ CPF: varchar(11)" style="text;strokeColor=none;fillColor=none;align=left;verticalAlign=top;spacingLeft=4;spacingRight=4;overflow=hidden;rotatable=0;points=[[0,0.5],[1,0.5]];portConstraint=eastwest;whiteSpace=wrap;html=1;" parent="XoVqxzNiHWCVRk3dF-dY-26" vertex="1">
          <mxGeometry y="118" width="140" height="26" as="geometry" />
        </mxCell>
        <mxCell id="XoVqxzNiHWCVRk3dF-dY-76" value="+ Itens: List&amp;lt;Itens&amp;gt;" style="text;strokeColor=none;fillColor=none;align=left;verticalAlign=top;spacingLeft=4;spacingRight=4;overflow=hidden;rotatable=0;points=[[0,0.5],[1,0.5]];portConstraint=eastwest;whiteSpace=wrap;html=1;" parent="XoVqxzNiHWCVRk3dF-dY-26" vertex="1">
          <mxGeometry y="144" width="140" height="26" as="geometry" />
        </mxCell>
        <mxCell id="XoVqxzNiHWCVRk3dF-dY-58" style="edgeStyle=orthogonalEdgeStyle;rounded=0;orthogonalLoop=1;jettySize=auto;html=1;entryX=0;entryY=0.5;entryDx=0;entryDy=0;dashed=1;" parent="1" source="XoVqxzNiHWCVRk3dF-dY-30" target="XoVqxzNiHWCVRk3dF-dY-55" edge="1">
          <mxGeometry relative="1" as="geometry" />
        </mxCell>
        <mxCell id="XoVqxzNiHWCVRk3dF-dY-64" value="Implements" style="edgeLabel;html=1;align=center;verticalAlign=middle;resizable=0;points=[];" parent="XoVqxzNiHWCVRk3dF-dY-58" vertex="1" connectable="0">
          <mxGeometry x="-0.3333" y="-1" relative="1" as="geometry">
            <mxPoint x="-34" y="-13" as="offset" />
          </mxGeometry>
        </mxCell>
        <mxCell id="XoVqxzNiHWCVRk3dF-dY-30" value="CashFlowService" style="swimlane;fontStyle=1;align=center;verticalAlign=top;childLayout=stackLayout;horizontal=1;startSize=26;horizontalStack=0;resizeParent=1;resizeParentMax=0;resizeLast=0;collapsible=1;marginBottom=0;whiteSpace=wrap;html=1;" parent="1" vertex="1">
          <mxGeometry x="350" y="1000" width="260" height="112" as="geometry" />
        </mxCell>
        <mxCell id="XoVqxzNiHWCVRk3dF-dY-31" value="- _repositoyy : ICashFlowRepository" style="text;strokeColor=none;fillColor=none;align=left;verticalAlign=top;spacingLeft=4;spacingRight=4;overflow=hidden;rotatable=0;points=[[0,0.5],[1,0.5]];portConstraint=eastwest;whiteSpace=wrap;html=1;" parent="XoVqxzNiHWCVRk3dF-dY-30" vertex="1">
          <mxGeometry y="26" width="260" height="26" as="geometry" />
        </mxCell>
        <mxCell id="XoVqxzNiHWCVRk3dF-dY-32" value="" style="line;strokeWidth=1;fillColor=none;align=left;verticalAlign=middle;spacingTop=-1;spacingLeft=3;spacingRight=3;rotatable=0;labelPosition=right;points=[];portConstraint=eastwest;strokeColor=inherit;" parent="XoVqxzNiHWCVRk3dF-dY-30" vertex="1">
          <mxGeometry y="52" width="260" height="8" as="geometry" />
        </mxCell>
        <mxCell id="XoVqxzNiHWCVRk3dF-dY-41" value="+ InsertCashFlow(CashFlow): Boolean&lt;div&gt;&lt;br&gt;&lt;/div&gt;" style="text;strokeColor=none;fillColor=none;align=left;verticalAlign=top;spacingLeft=4;spacingRight=4;overflow=hidden;rotatable=0;points=[[0,0.5],[1,0.5]];portConstraint=eastwest;whiteSpace=wrap;html=1;" parent="XoVqxzNiHWCVRk3dF-dY-30" vertex="1">
          <mxGeometry y="60" width="260" height="26" as="geometry" />
        </mxCell>
        <mxCell id="XoVqxzNiHWCVRk3dF-dY-42" value="+ RepostCashFlow(Date): List&amp;lt;CashFlow&amp;gt;&lt;div&gt;&lt;br&gt;&lt;/div&gt;" style="text;strokeColor=none;fillColor=none;align=left;verticalAlign=top;spacingLeft=4;spacingRight=4;overflow=hidden;rotatable=0;points=[[0,0.5],[1,0.5]];portConstraint=eastwest;whiteSpace=wrap;html=1;" parent="XoVqxzNiHWCVRk3dF-dY-30" vertex="1">
          <mxGeometry y="86" width="260" height="26" as="geometry" />
        </mxCell>
        <mxCell id="XoVqxzNiHWCVRk3dF-dY-59" style="edgeStyle=orthogonalEdgeStyle;rounded=0;orthogonalLoop=1;jettySize=auto;html=1;entryX=0.5;entryY=0;entryDx=0;entryDy=0;" parent="1" source="XoVqxzNiHWCVRk3dF-dY-34" target="XoVqxzNiHWCVRk3dF-dY-55" edge="1">
          <mxGeometry relative="1" as="geometry" />
        </mxCell>
        <mxCell id="XoVqxzNiHWCVRk3dF-dY-34" value="CashflowControler" style="swimlane;fontStyle=1;align=center;verticalAlign=top;childLayout=stackLayout;horizontal=1;startSize=26;horizontalStack=0;resizeParent=1;resizeParentMax=0;resizeLast=0;collapsible=1;marginBottom=0;whiteSpace=wrap;html=1;" parent="1" vertex="1">
          <mxGeometry x="640" y="840" width="290" height="138" as="geometry" />
        </mxCell>
        <mxCell id="XoVqxzNiHWCVRk3dF-dY-35" value="- _service:&amp;nbsp;&lt;b style=&quot;text-align: center;&quot;&gt;ICashFlowService&lt;/b&gt;" style="text;strokeColor=none;fillColor=none;align=left;verticalAlign=top;spacingLeft=4;spacingRight=4;overflow=hidden;rotatable=0;points=[[0,0.5],[1,0.5]];portConstraint=eastwest;whiteSpace=wrap;html=1;" parent="XoVqxzNiHWCVRk3dF-dY-34" vertex="1">
          <mxGeometry y="26" width="290" height="26" as="geometry" />
        </mxCell>
        <mxCell id="XoVqxzNiHWCVRk3dF-dY-36" value="" style="line;strokeWidth=1;fillColor=none;align=left;verticalAlign=middle;spacingTop=-1;spacingLeft=3;spacingRight=3;rotatable=0;labelPosition=right;points=[];portConstraint=eastwest;strokeColor=inherit;" parent="XoVqxzNiHWCVRk3dF-dY-34" vertex="1">
          <mxGeometry y="52" width="290" height="8" as="geometry" />
        </mxCell>
        <mxCell id="XoVqxzNiHWCVRk3dF-dY-39" value="+ InsertCashFlow(CashFlow): ActionResult&lt;div&gt;&lt;br&gt;&lt;/div&gt;" style="text;strokeColor=none;fillColor=none;align=left;verticalAlign=top;spacingLeft=4;spacingRight=4;overflow=hidden;rotatable=0;points=[[0,0.5],[1,0.5]];portConstraint=eastwest;whiteSpace=wrap;html=1;" parent="XoVqxzNiHWCVRk3dF-dY-34" vertex="1">
          <mxGeometry y="60" width="290" height="26" as="geometry" />
        </mxCell>
        <mxCell id="XoVqxzNiHWCVRk3dF-dY-37" value="+ RepostCashFlow(Date): ActionResult&lt;div&gt;&lt;br&gt;&lt;/div&gt;" style="text;strokeColor=none;fillColor=none;align=left;verticalAlign=top;spacingLeft=4;spacingRight=4;overflow=hidden;rotatable=0;points=[[0,0.5],[1,0.5]];portConstraint=eastwest;whiteSpace=wrap;html=1;" parent="XoVqxzNiHWCVRk3dF-dY-34" vertex="1">
          <mxGeometry y="86" width="290" height="26" as="geometry" />
        </mxCell>
        <mxCell id="XoVqxzNiHWCVRk3dF-dY-40" value="+ ManualInsertCashhFlow(CashFlow): ActionResult&lt;div&gt;&lt;br&gt;&lt;/div&gt;" style="text;strokeColor=none;fillColor=none;align=left;verticalAlign=top;spacingLeft=4;spacingRight=4;overflow=hidden;rotatable=0;points=[[0,0.5],[1,0.5]];portConstraint=eastwest;whiteSpace=wrap;html=1;" parent="XoVqxzNiHWCVRk3dF-dY-34" vertex="1">
          <mxGeometry y="112" width="290" height="26" as="geometry" />
        </mxCell>
        <mxCell id="XoVqxzNiHWCVRk3dF-dY-62" style="edgeStyle=orthogonalEdgeStyle;rounded=0;orthogonalLoop=1;jettySize=auto;html=1;entryX=0.5;entryY=0;entryDx=0;entryDy=0;" parent="1" source="XoVqxzNiHWCVRk3dF-dY-48" target="XoVqxzNiHWCVRk3dF-dY-30" edge="1">
          <mxGeometry relative="1" as="geometry" />
        </mxCell>
        <mxCell id="XoVqxzNiHWCVRk3dF-dY-63" style="edgeStyle=orthogonalEdgeStyle;rounded=0;orthogonalLoop=1;jettySize=auto;html=1;entryX=0;entryY=0.25;entryDx=0;entryDy=0;dashed=1;" parent="1" source="XoVqxzNiHWCVRk3dF-dY-48" target="XoVqxzNiHWCVRk3dF-dY-54" edge="1">
          <mxGeometry relative="1" as="geometry" />
        </mxCell>
        <mxCell id="XoVqxzNiHWCVRk3dF-dY-65" value="Implements" style="edgeLabel;html=1;align=center;verticalAlign=middle;resizable=0;points=[];" parent="XoVqxzNiHWCVRk3dF-dY-63" vertex="1" connectable="0">
          <mxGeometry x="-0.5546" y="-2" relative="1" as="geometry">
            <mxPoint x="28" y="-58" as="offset" />
          </mxGeometry>
        </mxCell>
        <mxCell id="XoVqxzNiHWCVRk3dF-dY-71" style="edgeStyle=orthogonalEdgeStyle;rounded=0;orthogonalLoop=1;jettySize=auto;html=1;entryX=0.5;entryY=0;entryDx=0;entryDy=0;" parent="1" source="XoVqxzNiHWCVRk3dF-dY-48" target="XoVqxzNiHWCVRk3dF-dY-66" edge="1">
          <mxGeometry relative="1" as="geometry">
            <Array as="points">
              <mxPoint x="205" y="726" />
            </Array>
          </mxGeometry>
        </mxCell>
        <mxCell id="XoVqxzNiHWCVRk3dF-dY-48" value="&lt;b&gt;CashFlowRepository&lt;/b&gt;" style="swimlane;fontStyle=1;align=center;verticalAlign=top;childLayout=stackLayout;horizontal=1;startSize=26;horizontalStack=0;resizeParent=1;resizeParentMax=0;resizeLast=0;collapsible=1;marginBottom=0;whiteSpace=wrap;html=1;" parent="1" vertex="1">
          <mxGeometry x="260" y="670" width="290" height="112" as="geometry" />
        </mxCell>
        <mxCell id="XoVqxzNiHWCVRk3dF-dY-49" value="- _ccntext : CashflowContext" style="text;strokeColor=none;fillColor=none;align=left;verticalAlign=top;spacingLeft=4;spacingRight=4;overflow=hidden;rotatable=0;points=[[0,0.5],[1,0.5]];portConstraint=eastwest;whiteSpace=wrap;html=1;" parent="XoVqxzNiHWCVRk3dF-dY-48" vertex="1">
          <mxGeometry y="26" width="290" height="26" as="geometry" />
        </mxCell>
        <mxCell id="XoVqxzNiHWCVRk3dF-dY-50" value="" style="line;strokeWidth=1;fillColor=none;align=left;verticalAlign=middle;spacingTop=-1;spacingLeft=3;spacingRight=3;rotatable=0;labelPosition=right;points=[];portConstraint=eastwest;strokeColor=inherit;" parent="XoVqxzNiHWCVRk3dF-dY-48" vertex="1">
          <mxGeometry y="52" width="290" height="8" as="geometry" />
        </mxCell>
        <mxCell id="XoVqxzNiHWCVRk3dF-dY-47" value="+ InsertCashFlow(CashFlow): Boolean&lt;div&gt;&lt;br&gt;&lt;/div&gt;" style="text;strokeColor=none;fillColor=none;align=left;verticalAlign=top;spacingLeft=4;spacingRight=4;overflow=hidden;rotatable=0;points=[[0,0.5],[1,0.5]];portConstraint=eastwest;whiteSpace=wrap;html=1;" parent="XoVqxzNiHWCVRk3dF-dY-48" vertex="1">
          <mxGeometry y="60" width="290" height="26" as="geometry" />
        </mxCell>
        <mxCell id="XoVqxzNiHWCVRk3dF-dY-52" value="+ RepostCashFlow(Date): List&amp;lt;CashFlow&amp;gt;&lt;div&gt;&lt;br&gt;&lt;/div&gt;" style="text;strokeColor=none;fillColor=none;align=left;verticalAlign=top;spacingLeft=4;spacingRight=4;overflow=hidden;rotatable=0;points=[[0,0.5],[1,0.5]];portConstraint=eastwest;whiteSpace=wrap;html=1;" parent="XoVqxzNiHWCVRk3dF-dY-48" vertex="1">
          <mxGeometry y="86" width="290" height="26" as="geometry" />
        </mxCell>
        <mxCell id="XoVqxzNiHWCVRk3dF-dY-53" style="edgeStyle=orthogonalEdgeStyle;rounded=0;orthogonalLoop=1;jettySize=auto;html=1;entryX=0;entryY=0.5;entryDx=0;entryDy=0;" parent="1" source="XoVqxzNiHWCVRk3dF-dY-30" target="XoVqxzNiHWCVRk3dF-dY-54" edge="1">
          <mxGeometry relative="1" as="geometry">
            <Array as="points">
              <mxPoint x="530" y="830" />
              <mxPoint x="623" y="830" />
              <mxPoint x="623" y="719" />
            </Array>
          </mxGeometry>
        </mxCell>
        <mxCell id="XoVqxzNiHWCVRk3dF-dY-54" value="&lt;p style=&quot;margin:0px;margin-top:4px;text-align:center;&quot;&gt;&lt;i&gt;&amp;lt;&amp;lt;Interface&amp;gt;&amp;gt;&lt;/i&gt;&lt;br&gt;&lt;span style=&quot;text-align: left;&quot;&gt;ICashFlowRepository&lt;/span&gt;&lt;br&gt;&lt;/p&gt;&lt;p style=&quot;margin:0px;margin-left:4px;&quot;&gt;&lt;br&gt;&lt;/p&gt;&lt;hr size=&quot;1&quot; style=&quot;border-style:solid;&quot;&gt;&lt;p style=&quot;margin:0px;margin-left:4px;&quot;&gt;+ InsertCashFlow(CashFlow): Boolean&lt;/p&gt;&lt;p style=&quot;margin:0px;margin-left:4px;&quot;&gt;+ RepostCashFlow(Date): List&amp;lt;CashFlow&amp;gt;&lt;/p&gt;" style="verticalAlign=top;align=left;overflow=fill;html=1;whiteSpace=wrap;" parent="1" vertex="1">
          <mxGeometry x="660" y="660" width="260" height="100" as="geometry" />
        </mxCell>
        <mxCell id="XoVqxzNiHWCVRk3dF-dY-55" value="&lt;p style=&quot;margin:0px;margin-top:4px;text-align:center;&quot;&gt;&lt;i&gt;&amp;lt;&amp;lt;Interface&amp;gt;&amp;gt;&lt;/i&gt;&lt;br&gt;&lt;b&gt;ICashFlowService&lt;/b&gt;&lt;/p&gt;&lt;p style=&quot;margin:0px;margin-left:4px;&quot;&gt;&lt;br&gt;&lt;/p&gt;&lt;hr size=&quot;1&quot; style=&quot;border-style:solid;&quot;&gt;+ InsertCashFlow(CashFlow): Boolean&lt;div&gt;+ RepostCashFlow(Date): List&amp;lt;CashFlow&amp;gt;&lt;/div&gt;" style="verticalAlign=top;align=left;overflow=fill;html=1;whiteSpace=wrap;" parent="1" vertex="1">
          <mxGeometry x="590" y="1130" width="330" height="100" as="geometry" />
        </mxCell>
        <mxCell id="XoVqxzNiHWCVRk3dF-dY-60" style="edgeStyle=orthogonalEdgeStyle;rounded=0;orthogonalLoop=1;jettySize=auto;html=1;entryX=-0.004;entryY=0.109;entryDx=0;entryDy=0;entryPerimeter=0;" parent="1" source="XoVqxzNiHWCVRk3dF-dY-31" target="XoVqxzNiHWCVRk3dF-dY-34" edge="1">
          <mxGeometry relative="1" as="geometry">
            <Array as="points">
              <mxPoint x="630" y="1039" />
              <mxPoint x="630" y="855" />
            </Array>
          </mxGeometry>
        </mxCell>
        <mxCell id="XoVqxzNiHWCVRk3dF-dY-66" value="&lt;span style=&quot;font-weight: 400; text-align: left;&quot;&gt;CashflowContext : DbContext&lt;/span&gt;" style="swimlane;fontStyle=1;align=center;verticalAlign=top;childLayout=stackLayout;horizontal=1;startSize=26;horizontalStack=0;resizeParent=1;resizeParentMax=0;resizeLast=0;collapsible=1;marginBottom=0;whiteSpace=wrap;html=1;" parent="1" vertex="1">
          <mxGeometry x="140" y="790" width="190" height="86" as="geometry" />
        </mxCell>
        <mxCell id="XoVqxzNiHWCVRk3dF-dY-67" value="+ transaction: DbSet&amp;lt;CashFow&amp;gt;" style="text;strokeColor=none;fillColor=none;align=left;verticalAlign=top;spacingLeft=4;spacingRight=4;overflow=hidden;rotatable=0;points=[[0,0.5],[1,0.5]];portConstraint=eastwest;whiteSpace=wrap;html=1;" parent="XoVqxzNiHWCVRk3dF-dY-66" vertex="1">
          <mxGeometry y="26" width="190" height="26" as="geometry" />
        </mxCell>
        <mxCell id="B5Lb7v3GaMCdAjL5lqkr-12" value="+ itens: DbSet&amp;lt;CashFow&amp;gt;" style="text;strokeColor=none;fillColor=none;align=left;verticalAlign=top;spacingLeft=4;spacingRight=4;overflow=hidden;rotatable=0;points=[[0,0.5],[1,0.5]];portConstraint=eastwest;whiteSpace=wrap;html=1;" vertex="1" parent="XoVqxzNiHWCVRk3dF-dY-66">
          <mxGeometry y="52" width="190" height="26" as="geometry" />
        </mxCell>
        <mxCell id="XoVqxzNiHWCVRk3dF-dY-68" value="" style="line;strokeWidth=1;fillColor=none;align=left;verticalAlign=middle;spacingTop=-1;spacingLeft=3;spacingRight=3;rotatable=0;labelPosition=right;points=[];portConstraint=eastwest;strokeColor=inherit;" parent="XoVqxzNiHWCVRk3dF-dY-66" vertex="1">
          <mxGeometry y="78" width="190" height="8" as="geometry" />
        </mxCell>
        <mxCell id="XoVqxzNiHWCVRk3dF-dY-70" style="edgeStyle=orthogonalEdgeStyle;rounded=0;orthogonalLoop=1;jettySize=auto;html=1;entryX=-0.002;entryY=0.128;entryDx=0;entryDy=0;entryPerimeter=0;" parent="1" source="XoVqxzNiHWCVRk3dF-dY-26" target="XoVqxzNiHWCVRk3dF-dY-66" edge="1">
          <mxGeometry relative="1" as="geometry" />
        </mxCell>
        <mxCell id="B5Lb7v3GaMCdAjL5lqkr-9" style="edgeStyle=orthogonalEdgeStyle;rounded=0;orthogonalLoop=1;jettySize=auto;html=1;dashed=1;" edge="1" parent="1" source="XoVqxzNiHWCVRk3dF-dY-72" target="B5Lb7v3GaMCdAjL5lqkr-4">
          <mxGeometry relative="1" as="geometry" />
        </mxCell>
        <mxCell id="B5Lb7v3GaMCdAjL5lqkr-10" value="Extends" style="edgeLabel;html=1;align=center;verticalAlign=middle;resizable=0;points=[];" vertex="1" connectable="0" parent="B5Lb7v3GaMCdAjL5lqkr-9">
          <mxGeometry x="-0.0076" relative="1" as="geometry">
            <mxPoint x="13" y="8" as="offset" />
          </mxGeometry>
        </mxCell>
        <mxCell id="XoVqxzNiHWCVRk3dF-dY-72" value="Itens" style="swimlane;fontStyle=0;childLayout=stackLayout;horizontal=1;startSize=26;fillColor=none;horizontalStack=0;resizeParent=1;resizeParentMax=0;resizeLast=0;collapsible=1;marginBottom=0;whiteSpace=wrap;html=1;" parent="1" vertex="1">
          <mxGeometry x="185" y="1074" width="140" height="156" as="geometry" />
        </mxCell>
        <mxCell id="B5Lb7v3GaMCdAjL5lqkr-2" value="+ Id: Guid" style="text;strokeColor=none;fillColor=none;align=left;verticalAlign=top;spacingLeft=4;spacingRight=4;overflow=hidden;rotatable=0;points=[[0,0.5],[1,0.5]];portConstraint=eastwest;whiteSpace=wrap;html=1;" vertex="1" parent="XoVqxzNiHWCVRk3dF-dY-72">
          <mxGeometry y="26" width="140" height="26" as="geometry" />
        </mxCell>
        <mxCell id="XoVqxzNiHWCVRk3dF-dY-73" value="+ Name: String" style="text;strokeColor=none;fillColor=none;align=left;verticalAlign=top;spacingLeft=4;spacingRight=4;overflow=hidden;rotatable=0;points=[[0,0.5],[1,0.5]];portConstraint=eastwest;whiteSpace=wrap;html=1;" parent="XoVqxzNiHWCVRk3dF-dY-72" vertex="1">
          <mxGeometry y="52" width="140" height="26" as="geometry" />
        </mxCell>
        <mxCell id="XoVqxzNiHWCVRk3dF-dY-74" value="+ Price: Decimal(17,2)" style="text;strokeColor=none;fillColor=none;align=left;verticalAlign=top;spacingLeft=4;spacingRight=4;overflow=hidden;rotatable=0;points=[[0,0.5],[1,0.5]];portConstraint=eastwest;whiteSpace=wrap;html=1;" parent="XoVqxzNiHWCVRk3dF-dY-72" vertex="1">
          <mxGeometry y="78" width="140" height="26" as="geometry" />
        </mxCell>
        <mxCell id="XoVqxzNiHWCVRk3dF-dY-75" value="+ Quantity: Int" style="text;strokeColor=none;fillColor=none;align=left;verticalAlign=top;spacingLeft=4;spacingRight=4;overflow=hidden;rotatable=0;points=[[0,0.5],[1,0.5]];portConstraint=eastwest;whiteSpace=wrap;html=1;" parent="XoVqxzNiHWCVRk3dF-dY-72" vertex="1">
          <mxGeometry y="104" width="140" height="26" as="geometry" />
        </mxCell>
        <mxCell id="B5Lb7v3GaMCdAjL5lqkr-3" value="+ CashFlowId: Guid" style="text;strokeColor=none;fillColor=none;align=left;verticalAlign=top;spacingLeft=4;spacingRight=4;overflow=hidden;rotatable=0;points=[[0,0.5],[1,0.5]];portConstraint=eastwest;whiteSpace=wrap;html=1;" vertex="1" parent="XoVqxzNiHWCVRk3dF-dY-72">
          <mxGeometry y="130" width="140" height="26" as="geometry" />
        </mxCell>
        <mxCell id="XoVqxzNiHWCVRk3dF-dY-77" style="edgeStyle=orthogonalEdgeStyle;rounded=0;orthogonalLoop=1;jettySize=auto;html=1;entryX=0.491;entryY=1.009;entryDx=0;entryDy=0;entryPerimeter=0;" parent="1" source="XoVqxzNiHWCVRk3dF-dY-74" target="XoVqxzNiHWCVRk3dF-dY-76" edge="1">
          <mxGeometry relative="1" as="geometry" />
        </mxCell>
        <mxCell id="XoVqxzNiHWCVRk3dF-dY-79" style="edgeStyle=orthogonalEdgeStyle;rounded=0;orthogonalLoop=1;jettySize=auto;html=1;" parent="1" source="XoVqxzNiHWCVRk3dF-dY-78" target="XoVqxzNiHWCVRk3dF-dY-25" edge="1">
          <mxGeometry relative="1" as="geometry" />
        </mxCell>
        <mxCell id="XoVqxzNiHWCVRk3dF-dY-78" value="Cloudflare" style="shape=module;align=left;spacingLeft=20;align=center;verticalAlign=top;whiteSpace=wrap;html=1;" parent="1" vertex="1">
          <mxGeometry x="770" y="180" width="100" height="50" as="geometry" />
        </mxCell>
        <mxCell id="XoVqxzNiHWCVRk3dF-dY-80" value="" style="ellipse;html=1;shape=startState;fillColor=#000000;strokeColor=#ff0000;" parent="1" vertex="1">
          <mxGeometry x="690" y="125" width="30" height="30" as="geometry" />
        </mxCell>
        <mxCell id="XoVqxzNiHWCVRk3dF-dY-81" value="" style="edgeStyle=orthogonalEdgeStyle;html=1;verticalAlign=bottom;endArrow=open;endSize=8;strokeColor=#ff0000;rounded=0;entryX=0.5;entryY=0;entryDx=0;entryDy=0;" parent="1" source="XoVqxzNiHWCVRk3dF-dY-80" target="XoVqxzNiHWCVRk3dF-dY-78" edge="1">
          <mxGeometry relative="1" as="geometry">
            <mxPoint x="1065" y="150" as="targetPoint" />
          </mxGeometry>
        </mxCell>
        <mxCell id="XoVqxzNiHWCVRk3dF-dY-82" value="Diagrama de Sequência" style="shape=umlFrame;whiteSpace=wrap;html=1;pointerEvents=0;width=150;" parent="1" vertex="1">
          <mxGeometry x="920" y="60" width="640" height="530" as="geometry" />
        </mxCell>
        <mxCell id="XoVqxzNiHWCVRk3dF-dY-83" value="" style="shape=umlLifeline;perimeter=lifelinePerimeter;whiteSpace=wrap;html=1;container=1;dropTarget=0;collapsible=0;recursiveResize=0;outlineConnect=0;portConstraint=eastwest;newEdgeStyle={&quot;curved&quot;:0,&quot;rounded&quot;:0};participant=umlActor;" parent="1" vertex="1">
          <mxGeometry x="940" y="110" width="20" height="470" as="geometry" />
        </mxCell>
        <mxCell id="XoVqxzNiHWCVRk3dF-dY-84" value="frontend" style="shape=umlLifeline;perimeter=lifelinePerimeter;whiteSpace=wrap;html=1;container=1;dropTarget=0;collapsible=0;recursiveResize=0;outlineConnect=0;portConstraint=eastwest;newEdgeStyle={&quot;curved&quot;:0,&quot;rounded&quot;:0};participant=umlBoundary;labelPosition=right;verticalLabelPosition=top;align=left;verticalAlign=bottom;" parent="1" vertex="1">
          <mxGeometry x="1030" y="110" width="50" height="470" as="geometry" />
        </mxCell>
        <mxCell id="XoVqxzNiHWCVRk3dF-dY-85" value="Alterções&lt;div&gt;&amp;nbsp;de saldo&lt;/div&gt;" style="html=1;points=[[0,0,0,0,5],[0,1,0,0,-5],[1,0,0,0,5],[1,1,0,0,-5]];perimeter=orthogonalPerimeter;outlineConnect=0;targetShapes=umlLifeline;portConstraint=eastwest;newEdgeStyle={&quot;curved&quot;:0,&quot;rounded&quot;:0};labelPosition=left;verticalLabelPosition=middle;align=right;verticalAlign=middle;" parent="XoVqxzNiHWCVRk3dF-dY-84" vertex="1">
          <mxGeometry x="20" y="80" width="10" height="230" as="geometry" />
        </mxCell>
        <mxCell id="XoVqxzNiHWCVRk3dF-dY-99" value="Relatórios" style="html=1;points=[[0,0,0,0,5],[0,1,0,0,-5],[1,0,0,0,5],[1,1,0,0,-5]];perimeter=orthogonalPerimeter;outlineConnect=0;targetShapes=umlLifeline;portConstraint=eastwest;newEdgeStyle={&quot;curved&quot;:0,&quot;rounded&quot;:0};labelPosition=left;verticalLabelPosition=middle;align=right;verticalAlign=middle;" parent="XoVqxzNiHWCVRk3dF-dY-84" vertex="1">
          <mxGeometry x="20" y="330" width="10" height="110" as="geometry" />
        </mxCell>
        <mxCell id="XoVqxzNiHWCVRk3dF-dY-86" value="dispatch" style="html=1;verticalAlign=bottom;startArrow=oval;endArrow=block;startSize=8;curved=0;rounded=0;entryX=0;entryY=0;entryDx=0;entryDy=5;" parent="1" source="XoVqxzNiHWCVRk3dF-dY-83" target="XoVqxzNiHWCVRk3dF-dY-85" edge="1">
          <mxGeometry relative="1" as="geometry">
            <mxPoint x="1080" y="175" as="sourcePoint" />
          </mxGeometry>
        </mxCell>
        <mxCell id="XoVqxzNiHWCVRk3dF-dY-87" value="API" style="shape=umlLifeline;perimeter=lifelinePerimeter;whiteSpace=wrap;html=1;container=1;dropTarget=0;collapsible=0;recursiveResize=0;outlineConnect=0;portConstraint=eastwest;newEdgeStyle={&quot;curved&quot;:0,&quot;rounded&quot;:0};participant=umlEntity;labelPosition=right;verticalLabelPosition=top;align=left;verticalAlign=bottom;" parent="1" vertex="1">
          <mxGeometry x="1200" y="80" width="40" height="500" as="geometry" />
        </mxCell>
        <mxCell id="XoVqxzNiHWCVRk3dF-dY-88" value="" style="html=1;points=[[0,0,0,0,5],[0,1,0,0,-5],[1,0,0,0,5],[1,1,0,0,-5]];perimeter=orthogonalPerimeter;outlineConnect=0;targetShapes=umlLifeline;portConstraint=eastwest;newEdgeStyle={&quot;curved&quot;:0,&quot;rounded&quot;:0};" parent="XoVqxzNiHWCVRk3dF-dY-87" vertex="1">
          <mxGeometry x="15" y="110" width="10" height="140" as="geometry" />
        </mxCell>
        <mxCell id="XoVqxzNiHWCVRk3dF-dY-101" value="" style="html=1;points=[[0,0,0,0,5],[0,1,0,0,-5],[1,0,0,0,5],[1,1,0,0,-5]];perimeter=orthogonalPerimeter;outlineConnect=0;targetShapes=umlLifeline;portConstraint=eastwest;newEdgeStyle={&quot;curved&quot;:0,&quot;rounded&quot;:0};" parent="XoVqxzNiHWCVRk3dF-dY-87" vertex="1">
          <mxGeometry x="15" y="360" width="10" height="110" as="geometry" />
        </mxCell>
        <mxCell id="XoVqxzNiHWCVRk3dF-dY-90" value="return" style="html=1;verticalAlign=bottom;endArrow=open;dashed=1;endSize=8;curved=0;rounded=0;exitX=0;exitY=1;exitDx=0;exitDy=-5;" parent="1" source="XoVqxzNiHWCVRk3dF-dY-88" target="XoVqxzNiHWCVRk3dF-dY-85" edge="1">
          <mxGeometry relative="1" as="geometry">
            <mxPoint x="1215" y="265" as="targetPoint" />
          </mxGeometry>
        </mxCell>
        <mxCell id="XoVqxzNiHWCVRk3dF-dY-89" value="dispatch" style="html=1;verticalAlign=bottom;endArrow=block;curved=0;rounded=0;entryX=0;entryY=0;entryDx=0;entryDy=5;" parent="1" source="XoVqxzNiHWCVRk3dF-dY-85" target="XoVqxzNiHWCVRk3dF-dY-88" edge="1">
          <mxGeometry relative="1" as="geometry">
            <mxPoint x="1215" y="195" as="sourcePoint" />
          </mxGeometry>
        </mxCell>
        <mxCell id="XoVqxzNiHWCVRk3dF-dY-91" value="Soquet.IO" style="shape=umlLifeline;perimeter=lifelinePerimeter;whiteSpace=wrap;html=1;container=1;dropTarget=0;collapsible=0;recursiveResize=0;outlineConnect=0;portConstraint=eastwest;newEdgeStyle={&quot;curved&quot;:0,&quot;rounded&quot;:0};participant=umlEntity;labelPosition=right;verticalLabelPosition=top;align=left;verticalAlign=bottom;" parent="1" vertex="1">
          <mxGeometry x="1340" y="80" width="40" height="500" as="geometry" />
        </mxCell>
        <mxCell id="XoVqxzNiHWCVRk3dF-dY-92" value="" style="html=1;points=[[0,0,0,0,5],[0,1,0,0,-5],[1,0,0,0,5],[1,1,0,0,-5]];perimeter=orthogonalPerimeter;outlineConnect=0;targetShapes=umlLifeline;portConstraint=eastwest;newEdgeStyle={&quot;curved&quot;:0,&quot;rounded&quot;:0};" parent="XoVqxzNiHWCVRk3dF-dY-91" vertex="1">
          <mxGeometry x="15" y="220" width="10" height="80" as="geometry" />
        </mxCell>
        <mxCell id="XoVqxzNiHWCVRk3dF-dY-93" value="dispatch" style="html=1;verticalAlign=bottom;endArrow=block;curved=0;rounded=0;entryX=0;entryY=0;entryDx=0;entryDy=5;" parent="1" source="XoVqxzNiHWCVRk3dF-dY-88" target="XoVqxzNiHWCVRk3dF-dY-92" edge="1">
          <mxGeometry relative="1" as="geometry">
            <mxPoint x="1305" y="305" as="sourcePoint" />
          </mxGeometry>
        </mxCell>
        <mxCell id="XoVqxzNiHWCVRk3dF-dY-94" value="return" style="html=1;verticalAlign=bottom;endArrow=open;dashed=1;endSize=8;curved=0;rounded=0;exitX=0;exitY=1;exitDx=0;exitDy=-5;" parent="1" source="XoVqxzNiHWCVRk3dF-dY-92" target="XoVqxzNiHWCVRk3dF-dY-85" edge="1">
          <mxGeometry relative="1" as="geometry">
            <mxPoint x="1305" y="375" as="targetPoint" />
          </mxGeometry>
        </mxCell>
        <mxCell id="XoVqxzNiHWCVRk3dF-dY-95" value="Database" style="shape=umlLifeline;perimeter=lifelinePerimeter;whiteSpace=wrap;html=1;container=1;dropTarget=0;collapsible=0;recursiveResize=0;outlineConnect=0;portConstraint=eastwest;newEdgeStyle={&quot;curved&quot;:0,&quot;rounded&quot;:0};participant=umlEntity;labelPosition=right;verticalLabelPosition=top;align=left;verticalAlign=bottom;" parent="1" vertex="1">
          <mxGeometry x="1460" y="80" width="40" height="500" as="geometry" />
        </mxCell>
        <mxCell id="XoVqxzNiHWCVRk3dF-dY-96" value="" style="html=1;points=[[0,0,0,0,5],[0,1,0,0,-5],[1,0,0,0,5],[1,1,0,0,-5]];perimeter=orthogonalPerimeter;outlineConnect=0;targetShapes=umlLifeline;portConstraint=eastwest;newEdgeStyle={&quot;curved&quot;:0,&quot;rounded&quot;:0};" parent="XoVqxzNiHWCVRk3dF-dY-95" vertex="1">
          <mxGeometry x="15" y="125" width="10" height="80" as="geometry" />
        </mxCell>
        <mxCell id="XoVqxzNiHWCVRk3dF-dY-104" value="" style="html=1;points=[[0,0,0,0,5],[0,1,0,0,-5],[1,0,0,0,5],[1,1,0,0,-5]];perimeter=orthogonalPerimeter;outlineConnect=0;targetShapes=umlLifeline;portConstraint=eastwest;newEdgeStyle={&quot;curved&quot;:0,&quot;rounded&quot;:0};" parent="XoVqxzNiHWCVRk3dF-dY-95" vertex="1">
          <mxGeometry x="15" y="380" width="10" height="80" as="geometry" />
        </mxCell>
        <mxCell id="XoVqxzNiHWCVRk3dF-dY-97" value="dispatch" style="html=1;verticalAlign=bottom;endArrow=block;curved=0;rounded=0;entryX=0;entryY=0;entryDx=0;entryDy=5;" parent="1" source="XoVqxzNiHWCVRk3dF-dY-88" target="XoVqxzNiHWCVRk3dF-dY-96" edge="1">
          <mxGeometry relative="1" as="geometry">
            <mxPoint x="1300" y="210" as="sourcePoint" />
          </mxGeometry>
        </mxCell>
        <mxCell id="XoVqxzNiHWCVRk3dF-dY-98" value="return" style="html=1;verticalAlign=bottom;endArrow=open;dashed=1;endSize=8;curved=0;rounded=0;exitX=0;exitY=1;exitDx=0;exitDy=-5;" parent="1" source="XoVqxzNiHWCVRk3dF-dY-96" target="XoVqxzNiHWCVRk3dF-dY-88" edge="1">
          <mxGeometry relative="1" as="geometry">
            <mxPoint x="1405" y="280" as="targetPoint" />
          </mxGeometry>
        </mxCell>
        <mxCell id="XoVqxzNiHWCVRk3dF-dY-100" value="dispatch" style="html=1;verticalAlign=bottom;startArrow=oval;endArrow=block;startSize=8;curved=0;rounded=0;entryX=0;entryY=0;entryDx=0;entryDy=5;" parent="1" source="XoVqxzNiHWCVRk3dF-dY-83" target="XoVqxzNiHWCVRk3dF-dY-99" edge="1">
          <mxGeometry relative="1" as="geometry">
            <mxPoint x="1130" y="415" as="sourcePoint" />
          </mxGeometry>
        </mxCell>
        <mxCell id="XoVqxzNiHWCVRk3dF-dY-102" value="dispatch" style="html=1;verticalAlign=bottom;endArrow=block;curved=0;rounded=0;entryX=0;entryY=0;entryDx=0;entryDy=5;" parent="1" source="XoVqxzNiHWCVRk3dF-dY-99" target="XoVqxzNiHWCVRk3dF-dY-101" edge="1">
          <mxGeometry relative="1" as="geometry">
            <mxPoint x="1215" y="445" as="sourcePoint" />
          </mxGeometry>
        </mxCell>
        <mxCell id="XoVqxzNiHWCVRk3dF-dY-103" value="return" style="html=1;verticalAlign=bottom;endArrow=open;dashed=1;endSize=8;curved=0;rounded=0;exitX=0;exitY=1;exitDx=0;exitDy=-5;" parent="1" source="XoVqxzNiHWCVRk3dF-dY-101" target="XoVqxzNiHWCVRk3dF-dY-99" edge="1">
          <mxGeometry relative="1" as="geometry">
            <mxPoint x="1215" y="515" as="targetPoint" />
          </mxGeometry>
        </mxCell>
        <mxCell id="XoVqxzNiHWCVRk3dF-dY-105" value="dispatch" style="html=1;verticalAlign=bottom;endArrow=block;curved=0;rounded=0;entryX=0;entryY=0;entryDx=0;entryDy=5;" parent="1" source="XoVqxzNiHWCVRk3dF-dY-101" target="XoVqxzNiHWCVRk3dF-dY-104" edge="1">
          <mxGeometry relative="1" as="geometry">
            <mxPoint x="1405" y="465" as="sourcePoint" />
          </mxGeometry>
        </mxCell>
        <mxCell id="XoVqxzNiHWCVRk3dF-dY-106" value="return" style="html=1;verticalAlign=bottom;endArrow=open;dashed=1;endSize=8;curved=0;rounded=0;exitX=0;exitY=1;exitDx=0;exitDy=-5;" parent="1" source="XoVqxzNiHWCVRk3dF-dY-104" target="XoVqxzNiHWCVRk3dF-dY-101" edge="1">
          <mxGeometry relative="1" as="geometry">
            <mxPoint x="1405" y="535" as="targetPoint" />
          </mxGeometry>
        </mxCell>
        <mxCell id="XoVqxzNiHWCVRk3dF-dY-107" value="Diagrma de Atvidade - Alteração saldo" style="shape=umlFrame;whiteSpace=wrap;html=1;pointerEvents=0;width=250;" parent="1" vertex="1">
          <mxGeometry x="980" y="630" width="580" height="620" as="geometry" />
        </mxCell>
        <mxCell id="XoVqxzNiHWCVRk3dF-dY-108" value="Usuario" style="swimlane;whiteSpace=wrap;html=1;" parent="1" vertex="1">
          <mxGeometry x="1020" y="680" width="90" height="550" as="geometry" />
        </mxCell>
        <mxCell id="XoVqxzNiHWCVRk3dF-dY-109" value="" style="ellipse;html=1;shape=startState;fillColor=#000000;strokeColor=#ff0000;" parent="XoVqxzNiHWCVRk3dF-dY-108" vertex="1">
          <mxGeometry x="30" y="44" width="30" height="30" as="geometry" />
        </mxCell>
        <mxCell id="XoVqxzNiHWCVRk3dF-dY-110" value="" style="edgeStyle=orthogonalEdgeStyle;html=1;verticalAlign=bottom;endArrow=open;endSize=8;strokeColor=#ff0000;rounded=0;entryX=0.5;entryY=0;entryDx=0;entryDy=0;" parent="XoVqxzNiHWCVRk3dF-dY-108" source="XoVqxzNiHWCVRk3dF-dY-109" target="XoVqxzNiHWCVRk3dF-dY-113" edge="1">
          <mxGeometry relative="1" as="geometry">
            <mxPoint x="45" y="134" as="targetPoint" />
          </mxGeometry>
        </mxCell>
        <mxCell id="XoVqxzNiHWCVRk3dF-dY-111" value="" style="ellipse;html=1;shape=endState;fillColor=#000000;strokeColor=#ff0000;" parent="XoVqxzNiHWCVRk3dF-dY-108" vertex="1">
          <mxGeometry x="30" y="508" width="30" height="30" as="geometry" />
        </mxCell>
        <mxCell id="XoVqxzNiHWCVRk3dF-dY-113" value="Inserir&lt;br&gt;Venda" style="rounded=1;whiteSpace=wrap;html=1;" parent="XoVqxzNiHWCVRk3dF-dY-108" vertex="1">
          <mxGeometry x="10" y="140" width="70" height="60" as="geometry" />
        </mxCell>
        <mxCell id="XoVqxzNiHWCVRk3dF-dY-112" value="Frontend" style="swimlane;whiteSpace=wrap;html=1;" parent="1" vertex="1">
          <mxGeometry x="1110" y="680" width="130" height="550" as="geometry" />
        </mxCell>
        <mxCell id="XoVqxzNiHWCVRk3dF-dY-114" value="Validações&amp;nbsp;&lt;div&gt;e Envio&lt;/div&gt;" style="rounded=1;whiteSpace=wrap;html=1;" parent="XoVqxzNiHWCVRk3dF-dY-112" vertex="1">
          <mxGeometry x="10" y="186" width="110" height="60" as="geometry" />
        </mxCell>
        <mxCell id="XoVqxzNiHWCVRk3dF-dY-121" value="Refresh nas telas de report" style="rounded=1;whiteSpace=wrap;html=1;" parent="XoVqxzNiHWCVRk3dF-dY-112" vertex="1">
          <mxGeometry x="12.5" y="270" width="105" height="60" as="geometry" />
        </mxCell>
        <mxCell id="XoVqxzNiHWCVRk3dF-dY-129" value="Display de&lt;div&gt;&amp;nbsp;sucesso&lt;/div&gt;" style="rounded=1;whiteSpace=wrap;html=1;" parent="XoVqxzNiHWCVRk3dF-dY-112" vertex="1">
          <mxGeometry x="10" y="380" width="110" height="60" as="geometry" />
        </mxCell>
        <mxCell id="XoVqxzNiHWCVRk3dF-dY-115" style="edgeStyle=orthogonalEdgeStyle;rounded=0;orthogonalLoop=1;jettySize=auto;html=1;entryX=0.5;entryY=0;entryDx=0;entryDy=0;" parent="1" source="XoVqxzNiHWCVRk3dF-dY-113" target="XoVqxzNiHWCVRk3dF-dY-114" edge="1">
          <mxGeometry relative="1" as="geometry">
            <Array as="points">
              <mxPoint x="1175" y="850" />
            </Array>
          </mxGeometry>
        </mxCell>
        <mxCell id="XoVqxzNiHWCVRk3dF-dY-116" value="Backend" style="swimlane;whiteSpace=wrap;html=1;" parent="1" vertex="1">
          <mxGeometry x="1240" y="680" width="160" height="550" as="geometry" />
        </mxCell>
        <mxCell id="XoVqxzNiHWCVRk3dF-dY-117" value="Outras validações&amp;nbsp;&lt;br&gt;Salvamento no bando de dados&amp;nbsp;" style="rounded=1;whiteSpace=wrap;html=1;" parent="XoVqxzNiHWCVRk3dF-dY-116" vertex="1">
          <mxGeometry x="20" y="140" width="120" height="60" as="geometry" />
        </mxCell>
        <mxCell id="XoVqxzNiHWCVRk3dF-dY-119" value="Soquet.IO" style="rounded=1;whiteSpace=wrap;html=1;" parent="XoVqxzNiHWCVRk3dF-dY-116" vertex="1">
          <mxGeometry x="20" y="334" width="120" height="60" as="geometry" />
        </mxCell>
        <mxCell id="XoVqxzNiHWCVRk3dF-dY-128" style="edgeStyle=orthogonalEdgeStyle;rounded=0;orthogonalLoop=1;jettySize=auto;html=1;entryX=0.5;entryY=1;entryDx=0;entryDy=0;" parent="XoVqxzNiHWCVRk3dF-dY-116" source="XoVqxzNiHWCVRk3dF-dY-126" target="XoVqxzNiHWCVRk3dF-dY-119" edge="1">
          <mxGeometry relative="1" as="geometry" />
        </mxCell>
        <mxCell id="XoVqxzNiHWCVRk3dF-dY-126" value="Retorno dos resultados" style="rounded=1;whiteSpace=wrap;html=1;" parent="XoVqxzNiHWCVRk3dF-dY-116" vertex="1">
          <mxGeometry x="20" y="439" width="120" height="60" as="geometry" />
        </mxCell>
        <mxCell id="XoVqxzNiHWCVRk3dF-dY-118" style="edgeStyle=orthogonalEdgeStyle;rounded=0;orthogonalLoop=1;jettySize=auto;html=1;entryX=0.25;entryY=1;entryDx=0;entryDy=0;" parent="1" source="XoVqxzNiHWCVRk3dF-dY-114" target="XoVqxzNiHWCVRk3dF-dY-117" edge="1">
          <mxGeometry relative="1" as="geometry">
            <Array as="points">
              <mxPoint x="1290" y="896" />
            </Array>
          </mxGeometry>
        </mxCell>
        <mxCell id="XoVqxzNiHWCVRk3dF-dY-122" style="edgeStyle=orthogonalEdgeStyle;rounded=0;orthogonalLoop=1;jettySize=auto;html=1;entryX=0.5;entryY=1;entryDx=0;entryDy=0;" parent="1" source="XoVqxzNiHWCVRk3dF-dY-119" target="XoVqxzNiHWCVRk3dF-dY-121" edge="1">
          <mxGeometry relative="1" as="geometry" />
        </mxCell>
        <mxCell id="XoVqxzNiHWCVRk3dF-dY-123" value="Database" style="swimlane;whiteSpace=wrap;html=1;" parent="1" vertex="1">
          <mxGeometry x="1400" y="680" width="140" height="550" as="geometry" />
        </mxCell>
        <mxCell id="XoVqxzNiHWCVRk3dF-dY-124" value="Persistenciaa dos dados" style="rounded=1;whiteSpace=wrap;html=1;" parent="XoVqxzNiHWCVRk3dF-dY-123" vertex="1">
          <mxGeometry x="10" y="245" width="120" height="60" as="geometry" />
        </mxCell>
        <mxCell id="XoVqxzNiHWCVRk3dF-dY-125" style="edgeStyle=orthogonalEdgeStyle;rounded=0;orthogonalLoop=1;jettySize=auto;html=1;entryX=0.5;entryY=0;entryDx=0;entryDy=0;" parent="1" source="XoVqxzNiHWCVRk3dF-dY-117" target="XoVqxzNiHWCVRk3dF-dY-124" edge="1">
          <mxGeometry relative="1" as="geometry" />
        </mxCell>
        <mxCell id="XoVqxzNiHWCVRk3dF-dY-127" style="edgeStyle=orthogonalEdgeStyle;rounded=0;orthogonalLoop=1;jettySize=auto;html=1;entryX=1;entryY=0.5;entryDx=0;entryDy=0;" parent="1" source="XoVqxzNiHWCVRk3dF-dY-124" target="XoVqxzNiHWCVRk3dF-dY-126" edge="1">
          <mxGeometry relative="1" as="geometry">
            <Array as="points">
              <mxPoint x="1470" y="1149" />
            </Array>
          </mxGeometry>
        </mxCell>
        <mxCell id="XoVqxzNiHWCVRk3dF-dY-130" style="edgeStyle=orthogonalEdgeStyle;rounded=0;orthogonalLoop=1;jettySize=auto;html=1;entryX=0.5;entryY=1;entryDx=0;entryDy=0;" parent="1" source="XoVqxzNiHWCVRk3dF-dY-126" target="XoVqxzNiHWCVRk3dF-dY-129" edge="1">
          <mxGeometry relative="1" as="geometry" />
        </mxCell>
        <mxCell id="XoVqxzNiHWCVRk3dF-dY-131" style="edgeStyle=orthogonalEdgeStyle;rounded=0;orthogonalLoop=1;jettySize=auto;html=1;entryX=0.5;entryY=0;entryDx=0;entryDy=0;" parent="1" source="XoVqxzNiHWCVRk3dF-dY-129" target="XoVqxzNiHWCVRk3dF-dY-111" edge="1">
          <mxGeometry relative="1" as="geometry" />
        </mxCell>
        <mxCell id="B5Lb7v3GaMCdAjL5lqkr-4" value="BaseDTO" style="swimlane;fontStyle=0;childLayout=stackLayout;horizontal=1;startSize=26;fillColor=none;horizontalStack=0;resizeParent=1;resizeParentMax=0;resizeLast=0;collapsible=1;marginBottom=0;whiteSpace=wrap;html=1;" vertex="1" parent="1">
          <mxGeometry x="260" y="900" width="140" height="78" as="geometry" />
        </mxCell>
        <mxCell id="B5Lb7v3GaMCdAjL5lqkr-6" value="+ DtChanged: DateTime" style="text;strokeColor=none;fillColor=none;align=left;verticalAlign=top;spacingLeft=4;spacingRight=4;overflow=hidden;rotatable=0;points=[[0,0.5],[1,0.5]];portConstraint=eastwest;whiteSpace=wrap;html=1;" vertex="1" parent="B5Lb7v3GaMCdAjL5lqkr-4">
          <mxGeometry y="26" width="140" height="26" as="geometry" />
        </mxCell>
        <mxCell id="B5Lb7v3GaMCdAjL5lqkr-7" value="+ IsActive: Boolean" style="text;strokeColor=none;fillColor=none;align=left;verticalAlign=top;spacingLeft=4;spacingRight=4;overflow=hidden;rotatable=0;points=[[0,0.5],[1,0.5]];portConstraint=eastwest;whiteSpace=wrap;html=1;" vertex="1" parent="B5Lb7v3GaMCdAjL5lqkr-4">
          <mxGeometry y="52" width="140" height="26" as="geometry" />
        </mxCell>
      </root>
    </mxGraphModel>
  </diagram>
</mxfile>
